<?xml version="1.0" standalone="no"?>
<!DOCTYPE svg PUBLIC "-//W3C//DTD SVG 20010904//EN"
 "http://www.w3.org/TR/2001/REC-SVG-20010904/DTD/svg10.dtd">
<svg version="1.0" xmlns="http://www.w3.org/2000/svg"
 width="1824.000000pt" height="1824.000000pt" viewBox="0 0 1824.000000 1824.000000"
 preserveAspectRatio="xMidYMid meet">
<metadata>
Created by potrace 1.14, written by Peter Selinger 2001-2017
</metadata>
<g transform="translate(0.000000,1824.000000) scale(0.100000,-0.100000)"
fill="#000000" stroke="none">
<path d="M8445 17939 c-1521 -76 -2853 -421 -3864 -1001 -215 -123 -539 -351
-604 -426 -18 -20 -18 -246 -7 -7349 7 -4030 13 -7333 15 -7339 4 -13 345
-174 605 -286 1249 -539 2559 -887 3730 -993 926 -83 1892 0 2983 256 914 214
1977 590 2806 990 l184 89 -6 4273 c-4 2349 -10 5639 -14 7309 l-6 3038 -131
88 c-510 346 -1213 672 -1941 902 -800 253 -1649 402 -2560 450 -218 11 -953
11 -1190 -1z m1115 -939 c874 -48 1639 -192 2395 -451 547 -187 1088 -447
1480 -711 l110 -74 6 -309 c4 -171 10 -798 14 -1394 l8 -1083 -74 41 c-136 77
-592 303 -782 388 -1029 460 -2001 732 -2992 840 -236 25 -961 25 -1200 0
-390 -42 -758 -106 -1135 -198 -137 -34 -482 -130 -544 -152 l-39 -13 1323
-1350 c728 -742 1393 -1421 1479 -1509 578 -592 1875 -1979 2960 -3165 184
-201 392 -423 462 -495 140 -142 215 -231 290 -342 64 -94 184 -310 219 -392
l28 -66 3 -975 c1 -536 -3 -1432 -9 -1990 -7 -558 -12 -1045 -12 -1082 l0 -68
-157 -103 c-648 -427 -1530 -773 -2449 -961 -675 -138 -1298 -194 -2034 -183
-825 13 -1475 93 -2172 268 -779 195 -1510 527 -1970 895 l-98 78 0 461 c1
673 17 2316 23 2322 3 3 50 -20 104 -50 561 -311 1294 -624 1944 -831 708
-225 1350 -353 1984 -397 244 -17 796 -6 1035 20 453 49 862 125 1295 242 249
67 337 93 339 100 0 3 -748 757 -1663 1675 -2028 2034 -2584 2600 -3986 4059
-269 281 -562 584 -650 675 -171 177 -250 280 -358 467 l-67 117 1 2230 1
2231 67 57 c181 152 439 312 756 468 860 423 1868 653 3130 713 161 8 771 6
935 -3z"/>
</g>
</svg>
